<?xml version="1.0" encoding="iso-8859-1"?>
<!-- Generator: Adobe Illustrator 19.0.0, SVG Export Plug-In . SVG Version: 6.00 Build 0)  -->
<svg version="1.1" id="Layer_1" xmlns="http://www.w3.org/2000/svg" xmlns:xlink="http://www.w3.org/1999/xlink" x="0px" y="0px"
	 viewBox="0 0 512 512" style="enable-background:new 0 0 512 512;" xml:space="preserve">
<g>
	<g>
		<path d="M415.969,349.594c-5.875,0-10.656,4.781-10.656,10.672s4.781,10.656,10.656,10.656c5.906,0,10.672-4.766,10.672-10.656
			S421.875,349.594,415.969,349.594z"/>
	</g>
</g>
<g>
	<g>
		<path d="M106.656,349.594c-5.883,0-10.664,4.781-10.664,10.672s4.781,10.656,10.664,10.656c5.891,0,10.672-4.766,10.672-10.656
			S112.547,349.594,106.656,349.594z"/>
	</g>
</g>
<g>
	<g>
		<path d="M213.32,189.078v-32h-63.992v32h-32v64h32v32h63.992v-32h32v-64H213.32z M223.984,231.75H213.32h-21.336v21.328v10.656
			h-21.328v-10.656V231.75h-21.328h-10.672v-21.344h10.672h21.328v-21.328v-10.672h21.328v10.672v21.328h21.336h10.664V231.75z"/>
	</g>
</g>
<g>
	<g>
		<path d="M426.641,157.078l-31.984,0.031V135.75c0-5.891-4.766-10.672-10.656-10.672s-10.656,4.781-10.656,10.672v21.391
			l-32.031,0.031v-42.75c0-11.781-9.547-21.344-21.344-21.344H21.328C9.547,93.078,0,102.64,0,114.422v234.641
			c0,11.781,9.547,21.344,21.328,21.344h28.578c4.789,27,28.367,47.516,56.75,47.516c28.391,0,51.969-20.516,56.758-47.516h194.773
			c4.812,27.562,28.844,48.516,57.781,48.516s52.984-20.953,57.781-48.516h38.031L512,263.734L426.641,157.078z M106.656,396.594
			c-20.031,0-36.328-16.297-36.328-36.328s16.297-36.344,36.328-36.344c20.039,0,36.336,16.312,36.336,36.344
			S126.695,396.594,106.656,396.594z M319.969,349.063H163.227v-0.001c-5.211-26.484-28.555-46.469-56.57-46.469
			c-28.008,0-51.352,19.984-56.562,46.469H21.328v-234.64h298.641V349.063z M415.969,397.594c-20.578,0-37.328-16.75-37.328-37.328
			c0-20.594,16.75-37.344,37.328-37.344c20.594,0,37.344,16.75,37.344,37.344C453.312,380.844,436.562,397.594,415.969,397.594z
			 M490.5,349.062h-16.938c-5.219-27.031-29.016-47.469-57.594-47.469c-28.562,0-52.359,20.422-57.594,47.469h-17.062V178.5
			l75.094-0.078l74.25,92.781L490.5,349.062z"/>
	</g>
</g>
<g>
</g>
<g>
</g>
<g>
</g>
<g>
</g>
<g>
</g>
<g>
</g>
<g>
</g>
<g>
</g>
<g>
</g>
<g>
</g>
<g>
</g>
<g>
</g>
<g>
</g>
<g>
</g>
<g>
</g>
</svg>
