<svg id="Capa_1" enable-background="new 0 0 512 512" height="512" viewBox="0 0 512 512" width="512" xmlns="http://www.w3.org/2000/svg"><g><path d="m301 76v60h-90v-60c0-8.401 6.599-15 15-15h60c8.401 0 15 6.599 15 15z" fill="#ff6a4d"/><path d="m301 76v60h-45v-75h30c8.401 0 15 6.599 15 15z" fill="#e62e2e"/><path d="m512 286c0-5.684-3.208-10.869-8.291-13.418l-58.444-31.582-39.265-30-30-30 24.271-30-10.853-21.709c-2.549-5.083-7.734-8.291-13.418-8.291h-120-241c-8.291 0-15 6.709-15 15v165l30 15-30 15v75c0 8.291 6.709 15 15 15h241 241c8.291 0 15-6.709 15-15v-75l-30-15 30-15z" fill="#edf5ff"/><path d="m512 406v-75l-30-15 30-15v-15c0-5.684-3.208-10.869-8.291-13.418l-58.444-31.582-39.265-30-30-30 24.271-30-10.853-21.709c-2.549-5.083-7.734-8.291-13.418-8.291h-120v300h241c8.291 0 15-6.709 15-15z" fill="#d5e8fe"/><path d="m376 451c-24.814 0-45-20.186-45-45s20.186-45 45-45 45 20.186 45 45-20.186 45-45 45z" fill="#29376d"/><path d="m106 451c-24.814 0-45-20.186-45-45s20.186-45 45-45 45 20.186 45 45-20.186 45-45 45z" fill="#47568c"/><path d="m196 211h-15v-15c0-8.291-6.709-15-15-15s-15 6.709-15 15v15h-15c-8.291 0-15 6.709-15 15s6.709 15 15 15h15v15c0 8.291 6.709 15 15 15s15-6.709 15-15v-15h15c8.291 0 15-6.709 15-15s-6.709-15-15-15z" fill="#ff6a4d"/><circle cx="376" cy="406" fill="#d5e8fe" r="15"/><circle cx="106" cy="406" fill="#edf5ff" r="15"/><path d="m466 301c-8.291 0-15 6.709-15 15s6.709 15 15 15h46v-30z" fill="#e62e2e"/><path d="m376 301h-120-256v30h256 120c8.284 0 15-6.716 15-15 0-8.286-6.716-15-15-15z" fill="#ff6a4d"/><path d="m391 316c0-8.286-6.716-15-15-15h-120v30h120c8.284 0 15-6.716 15-15z" fill="#e62e2e"/><path d="m271 166v60c0 8.284 6.716 15 15 15h159.265l-44.995-90h-114.27c-8.284 0-15 6.714-15 15z" fill="#29376d"/></g></svg>