<?xml version="1.0" encoding="utf-8"?>
<!-- Svg Vector Icons : http://www.onlinewebfonts.com/icon -->
<!DOCTYPE svg PUBLIC "-//W3C//DTD SVG 1.1//EN" "http://www.w3.org/Graphics/SVG/1.1/DTD/svg11.dtd">
<svg version="1.1" xmlns="http://www.w3.org/2000/svg" xmlns:xlink="http://www.w3.org/1999/xlink" x="0px" y="0px" viewBox="0 0 1000 1000" enable-background="new 0 0 1000 1000" xml:space="preserve">
<metadata> Svg Vector Icons : http://www.onlinewebfonts.com/icon </metadata>
<g><g transform="translate(0.000000,512.000000) scale(0.100000,-0.100000)"><path d="M1694.9,5008.8c-257.5-48-532.3-163.3-768.6-322.8C776.4,4584.1,542,4349.7,438.2,4194c-115.3-167.2-240.2-440-294-636L100,3394.6V118.4v-3276.3l44.2-163.3c53.8-194.1,178.7-467,294-636C543.9-4114.8,776.4-4347.3,934-4453c169.1-115.3,442-240.2,636-294l163.3-44.2H5000h3266.7l163.3,44.2c194.1,53.8,466.9,178.7,636,294c157.6,105.7,390.1,338.2,495.8,495.8c115.3,169.1,240.2,442,294,636l44.2,163.3V118.4v3276.3l-44.2,163.3c-194.1,707.1-703.3,1216.4-1425.8,1427.7l-144.1,40.4l-3228.2,3.8C2473.1,5033.7,1802.5,5029.9,1694.9,5008.8z M2838.2,3976.9c238.3-80.7,365.1-263.3,365.1-528.4c0-215.2-86.5-344-301.7-442c-228.7-105.7-455.4-96.1-613,26.9c-101.8,76.9-119.1,74.9-307.5-13.5c-148-71.1-292.1-197.9-336.3-297.8c-86.5-190.2-3.8-607.2,251.7-1268.2c61.5-157.6,169.1-457.3,240.2-662.9c71.1-205.6,163.3-442,205.6-522.7c217.1-420.8,716.7-743.6,1197.1-778.2c119.1-7.7,215.2,1.9,426.6,40.4C4413.9-387,4638.7-287.1,4829-89.2c221,228.7,338.2,472.7,534.2,1112.6c157.6,507.3,251.7,953.1,320.9,1502.7l36.5,303.6l-40.3,57.6c-88.4,124.9-290.2,232.5-526.5,276.7c-80.7,15.4-159.5,28.8-172.9,28.8c-15.4,0-61.5-34.6-103.8-76.9c-119.1-121.1-228.7-161.4-434.3-163.3c-151.8,0-188.3,7.7-294,55.7c-209.5,96.1-305.5,257.5-288.2,478.5c17.3,205.6,128.7,365.1,328.6,468.9c90.3,48,119.1,53.8,292.1,53.8c161.4,0,205.6-7.7,270.9-42.3c128.7-69.2,213.3-182.5,246-334.4c9.6-48,17.3-50,238.3-73c668.7-67.3,912.7-228.7,985.8-649.5c34.6-192.2,9.6-472.7-86.5-1014.6c-94.2-543.8-96.1-549.6-361.3-1364.3C5526.5-229.4,5420.8-450.4,5192.2-681c-132.6-134.5-182.5-171-355.5-253.7c-111.4-53.8-261.3-113.4-336.3-130.7c-73-17.3-140.3-38.4-148-44.2c-7.7-7.7,5.8-90.3,30.7-184.5c25-96.1,73-294,107.6-442c188.3-816.7,409.3-1189.5,814.8-1385.4c213.3-103.8,370.9-128.8,709.1-117.2c303.6,9.6,424.7,34.6,618.8,132.6c522.7,263.3,932,935.8,981.9,1612.2l13.5,165.2l-55.7,11.5c-153.7,30.8-438.1,303.6-507.3,488.1c-53.8,134.5-71.1,393.9-40.3,545.7c50,238.3,236.3,505.4,432.4,620.7c261.3,151.8,630.3,140.3,981.9-34.6c249.8-123,428.5-368.9,474.6-655.3c59.6-355.5-161.4-774.4-491.9-930c-63.4-30.7-144.1-61.5-176.8-69.2c-67.3-13.5-84.6-57.6-84.6-221c0-436.2-295.9-1091.5-674.5-1491.1c-349.7-370.9-724.4-611.1-1097.2-699.5c-465-109.6-1129.9-67.3-1456.6,94.2c-167.2,84.5-263.3,155.6-405.5,303.6c-328.6,340.1-561.1,857-793.6,1754.4c-57.6,217.1-99.9,343.9-121.1,359.3c-17.3,13.5-88.4,25-157.6,25c-190.2,0-486.2,50-666.8,113.4c-292.1,99.9-505.4,259.4-674.5,505.4c-192.2,278.6-259.4,449.7-630.3,1581.5c-317.1,972.3-395.8,1283.6-399.7,1575.7c-1.9,178.7,1.9,199.8,53.8,295.9c140.3,255.6,370.9,422.7,778.2,566.9l144.1,51.9l1.9,82.6c5.8,190.2,171,388.2,368.9,440C2586.5,4026.8,2698,4024.9,2838.2,3976.9z"/></g></g>
</svg>